<?xml version="1.0" encoding="UTF-8"?>
<!DOCTYPE svg PUBLIC "-//W3C//DTD SVG 1.1//EN" "http://www.w3.org/Graphics/SVG/1.1/DTD/svg11.dtd">
<svg xmlns="http://www.w3.org/2000/svg" version="1.1" width="2560px" height="1029px" style="shape-rendering:geometricPrecision; text-rendering:geometricPrecision; image-rendering:optimizeQuality; fill-rule:evenodd; clip-rule:evenodd" xmlns:xlink="http://www.w3.org/1999/xlink">
<g><path style="opacity:0.981" fill="#fec608" d="M 303.5,253.5 C 277.167,253.5 250.833,253.5 224.5,253.5C 229.922,233.107 243.256,222.773 264.5,222.5C 285.533,222.878 298.533,233.211 303.5,253.5 Z"/></g>
<g><path style="opacity:0.997" fill="#fdba0c" d="M 224.5,253.5 C 250.833,253.5 277.167,253.5 303.5,253.5C 304.725,258.29 305.392,263.29 305.5,268.5C 304.596,269.209 304.263,270.209 304.5,271.5C 277.5,271.5 250.5,271.5 223.5,271.5C 223.254,265.441 223.587,259.441 224.5,253.5 Z"/></g>
<g><path style="opacity:0.997" fill="#fbae11" d="M 305.5,268.5 C 305.5,277.833 305.5,287.167 305.5,296.5C 304.539,294.735 304.205,292.735 304.5,290.5C 277.5,290.5 250.5,290.5 223.5,290.5C 223.5,284.167 223.5,277.833 223.5,271.5C 250.5,271.5 277.5,271.5 304.5,271.5C 304.263,270.209 304.596,269.209 305.5,268.5 Z"/></g>
<g><path style="opacity:1" fill="#faa115" d="M 223.5,290.5 C 250.5,290.5 277.5,290.5 304.5,290.5C 304.205,292.735 304.539,294.735 305.5,296.5C 305.5,299.5 305.5,302.5 305.5,305.5C 278.574,306.491 251.574,306.824 224.5,306.5C 224.795,304.265 224.461,302.265 223.5,300.5C 223.5,297.167 223.5,293.833 223.5,290.5 Z"/></g>
<g><path style="opacity:0.997" fill="#f89a18" d="M 223.5,300.5 C 224.461,302.265 224.795,304.265 224.5,306.5C 251.574,306.824 278.574,306.491 305.5,305.5C 305.5,308.5 305.5,311.5 305.5,314.5C 304.566,315.568 304.232,316.901 304.5,318.5C 277.5,318.5 250.5,318.5 223.5,318.5C 223.5,312.5 223.5,306.5 223.5,300.5 Z"/></g>
<g><path style="opacity:0.985" fill="#f78e1c" d="M 305.5,314.5 C 305.5,320.833 305.5,327.167 305.5,333.5C 304.596,334.209 304.263,335.209 304.5,336.5C 277.5,336.5 250.5,336.5 223.5,336.5C 223.5,330.5 223.5,324.5 223.5,318.5C 250.5,318.5 277.5,318.5 304.5,318.5C 304.232,316.901 304.566,315.568 305.5,314.5 Z"/></g>
<g><path style="opacity:0.996" fill="#f58021" d="M 305.5,333.5 C 305.5,339.167 305.5,344.833 305.5,350.5C 287.12,350.344 270.12,355.01 254.5,364.5C 244.085,364.192 233.751,364.525 223.5,365.5C 223.5,355.833 223.5,346.167 223.5,336.5C 250.5,336.5 277.5,336.5 304.5,336.5C 304.263,335.209 304.596,334.209 305.5,333.5 Z"/></g>
<g><path style="opacity:0.987" fill="#f78e1c" d="M 1021.5,345.5 C 1028.92,345.203 1036.25,345.536 1043.5,346.5C 1043.82,368.242 1043.49,389.909 1042.5,411.5C 1035.87,410.669 1029.2,410.336 1022.5,410.5C 1021.51,388.909 1021.18,367.242 1021.5,345.5 Z"/></g>
<g><path style="opacity:1" fill="#fc7503" d="M 643.5,345.5 C 649.645,346.49 655.978,346.823 662.5,346.5C 662.5,368.833 662.5,391.167 662.5,413.5C 657.637,413.181 652.97,413.514 648.5,414.5C 642.788,414.313 637.121,414.646 631.5,415.5C 631.5,393.167 631.5,370.833 631.5,348.5C 628.5,348.5 625.5,348.5 622.5,348.5C 629.37,347.228 636.37,346.228 643.5,345.5 Z"/></g>
<g><path style="opacity:1" fill="#fb6802" d="M 643.5,345.5 C 660.036,345.078 676.369,345.744 692.5,347.5C 693.568,348.434 694.901,348.768 696.5,348.5C 696.5,371.167 696.5,393.833 696.5,416.5C 694.5,416.5 692.5,416.5 690.5,416.5C 676.878,415.024 663.211,414.357 649.5,414.5C 649.167,414.5 648.833,414.5 648.5,414.5C 652.97,413.514 657.637,413.181 662.5,413.5C 662.5,391.167 662.5,368.833 662.5,346.5C 655.978,346.823 649.645,346.49 643.5,345.5 Z"/></g>
<g><path style="opacity:0.996" fill="#f89a18" d="M 1021.5,345.5 C 1021.18,367.242 1021.51,388.909 1022.5,410.5C 1016.28,410.979 1010.28,412.313 1004.5,414.5C 1004.18,391.758 1004.51,369.092 1005.5,346.5C 1010.8,345.806 1016.14,345.472 1021.5,345.5 Z"/></g>
<g><path style="opacity:0.989" fill="#f58221" d="M 1043.5,346.5 C 1051.88,346.59 1060.22,347.257 1068.5,348.5C 1069.16,371.525 1068.49,394.191 1066.5,416.5C 1058.61,414.323 1050.61,412.656 1042.5,411.5C 1043.49,389.909 1043.82,368.242 1043.5,346.5 Z"/></g>
<g><path style="opacity:0.992" fill="#faa414" d="M 1005.5,346.5 C 1004.51,369.092 1004.18,391.758 1004.5,414.5C 997.408,416.878 991.075,420.545 985.5,425.5C 984.173,400.598 984.173,375.598 985.5,350.5C 991.921,348.549 998.588,347.216 1005.5,346.5 Z"/></g>
<g><path style="opacity:0.992" fill="#f47924" d="M 1068.5,348.5 C 1072.29,349.385 1075.95,350.385 1079.5,351.5C 1080.49,374.758 1080.82,398.092 1080.5,421.5C 1075.56,420.354 1070.9,418.687 1066.5,416.5C 1068.49,394.191 1069.16,371.525 1068.5,348.5 Z"/></g>
<g><path style="opacity:0.988" fill="#f80101" d="M 305.5,350.5 C 340.835,350.333 376.168,350.5 411.5,351C 433.557,355.055 443.39,368.221 441,390.5C 440.356,394.619 438.856,398.285 436.5,401.5C 435.711,401.217 435.044,400.717 434.5,400C 373,391.5 311.5,383 250,374.5C 248.319,374.392 247.152,373.725 246.5,372.5C 248.86,369.473 251.527,366.806 254.5,364.5C 270.12,355.01 287.12,350.344 305.5,350.5 Z"/></g>
<g><path style="opacity:1" fill="#fc8303" d="M 622.5,348.5 C 625.5,348.5 628.5,348.5 631.5,348.5C 631.5,370.833 631.5,393.167 631.5,415.5C 620.128,416.908 608.795,418.574 597.5,420.5C 597.5,398.5 597.5,376.5 597.5,354.5C 596.167,354.5 594.833,354.5 593.5,354.5C 602.79,351.241 612.457,349.241 622.5,348.5 Z"/></g>
<g><path style="opacity:1" fill="#fb5b01" d="M 692.5,347.5 C 704.857,348.109 716.857,350.109 728.5,353.5C 728.5,377.5 728.5,401.5 728.5,425.5C 727.5,425.5 726.5,425.5 725.5,425.5C 713.847,422.004 702.18,419.004 690.5,416.5C 692.5,416.5 694.5,416.5 696.5,416.5C 696.5,393.833 696.5,371.167 696.5,348.5C 694.901,348.768 693.568,348.434 692.5,347.5 Z"/></g>
<g><path style="opacity:0.995" fill="#fbb010" d="M 985.5,350.5 C 984.173,375.598 984.173,400.598 985.5,425.5C 973.073,443.465 972.24,462.131 983,481.5C 988.965,489.299 995.465,496.632 1002.5,503.5C 1000.17,502.167 997.833,500.833 995.5,499.5C 987.525,492.529 979.525,485.529 971.5,478.5C 967.167,473.833 962.833,469.167 958.5,464.5C 959.498,429.671 959.832,394.671 959.5,359.5C 967.671,355.331 976.338,352.331 985.5,350.5 Z"/></g>
<g><path style="opacity:0.99" fill="#f36f28" d="M 1079.5,351.5 C 1087.74,353.026 1095.74,355.36 1103.5,358.5C 1103.5,381.833 1103.5,405.167 1103.5,428.5C 1095.31,427.542 1087.65,425.208 1080.5,421.5C 1080.82,398.092 1080.49,374.758 1079.5,351.5 Z"/></g>
<g><path style="opacity:0.992" fill="#007dc5" d="M 1274.5,354.5 C 1310.83,354.5 1347.17,354.5 1383.5,354.5C 1383.5,365.833 1383.5,377.167 1383.5,388.5C 1372.83,388.5 1362.17,388.5 1351.5,388.5C 1351.5,414.833 1351.5,441.167 1351.5,467.5C 1336.5,467.5 1321.5,467.5 1306.5,467.5C 1306.5,441.167 1306.5,414.833 1306.5,388.5C 1295.83,388.5 1285.17,388.5 1274.5,388.5C 1274.5,377.167 1274.5,365.833 1274.5,354.5 Z"/></g>
<g><path style="opacity:0.983" fill="#007cc5" d="M 1414.5,355.5 C 1430.74,355.175 1446.91,355.509 1463,356.5C 1477.04,393.404 1491.2,430.237 1505.5,467C 1490.49,467.833 1475.49,467.666 1460.5,466.5C 1453.16,445.491 1445.83,424.491 1438.5,403.5C 1430.78,424.34 1423.44,445.34 1416.5,466.5C 1401.5,467.833 1386.5,467.833 1371.5,466.5C 1385.65,429.393 1399.98,392.393 1414.5,355.5 Z"/></g>
<g><path style="opacity:0.99" fill="#007dc5" d="M 1493.5,354.5 C 1529.83,354.5 1566.17,354.5 1602.5,354.5C 1602.5,365.833 1602.5,377.167 1602.5,388.5C 1591.83,388.5 1581.17,388.5 1570.5,388.5C 1570.5,414.833 1570.5,441.167 1570.5,467.5C 1555.5,467.5 1540.5,467.5 1525.5,467.5C 1525.5,441.167 1525.5,414.833 1525.5,388.5C 1514.83,388.5 1504.17,388.5 1493.5,388.5C 1493.5,377.167 1493.5,365.833 1493.5,354.5 Z"/></g>
<g><path style="opacity:0.983" fill="#007cc5" d="M 1632.5,355.5 C 1649.08,355.175 1665.58,355.508 1682,356.5C 1696.04,393.404 1710.2,430.237 1724.5,467C 1709.49,467.833 1694.49,467.666 1679.5,466.5C 1672.16,445.491 1664.83,424.491 1657.5,403.5C 1649.78,424.34 1642.44,445.34 1635.5,466.5C 1620.5,467.833 1605.5,467.833 1590.5,466.5C 1604.9,429.62 1618.9,392.62 1632.5,355.5 Z"/></g>
<g><path style="opacity:1" fill="#fd8f04" d="M 593.5,354.5 C 594.833,354.5 596.167,354.5 597.5,354.5C 597.5,376.5 597.5,398.5 597.5,420.5C 586.73,423.199 576.064,426.533 565.5,430.5C 565.833,408.823 565.5,387.156 564.5,365.5C 562.929,366.309 561.262,366.643 559.5,366.5C 570.259,361.134 581.592,357.134 593.5,354.5 Z"/></g>
<g><path style="opacity:1" fill="#fb4f01" d="M 728.5,353.5 C 739.96,355.656 750.96,358.989 761.5,363.5C 762.49,388.092 762.823,412.759 762.5,437.5C 761.167,437.5 759.833,437.5 758.5,437.5C 746.861,435.067 735.861,431.067 725.5,425.5C 726.5,425.5 727.5,425.5 728.5,425.5C 728.5,401.5 728.5,377.5 728.5,353.5 Z"/></g>
<g><path style="opacity:0.995" fill="#f2672a" d="M 1103.5,358.5 C 1108.08,360.13 1112.41,362.13 1116.5,364.5C 1116.18,385.909 1116.51,407.242 1117.5,428.5C 1112.83,428.5 1108.17,428.5 1103.5,428.5C 1103.5,405.167 1103.5,381.833 1103.5,358.5 Z"/></g>
<g><path style="opacity:0.991" fill="#f36e28" d="M 254.5,364.5 C 251.527,366.806 248.86,369.473 246.5,372.5C 234.503,383.491 227.503,397.158 225.5,413.5C 224.833,415.833 224.167,418.167 223.5,420.5C 223.5,402.167 223.5,383.833 223.5,365.5C 233.751,364.525 244.085,364.192 254.5,364.5 Z"/></g>
<g><path style="opacity:0.996" fill="#fdbd0b" d="M 959.5,359.5 C 959.832,394.671 959.498,429.671 958.5,464.5C 954.126,460.128 950.126,455.461 946.5,450.5C 936.773,437.708 930.273,423.374 927,407.5C 924.985,394.384 928.485,383.051 937.5,373.5C 944.025,367.657 951.359,362.99 959.5,359.5 Z"/></g>
<g><path style="opacity:1" fill="#fa4200" d="M 761.5,363.5 C 775.275,367.301 787.108,374.301 797,384.5C 804.075,395.781 805.409,407.781 801,420.5C 794.41,433.055 783.91,439.389 769.5,439.5C 765.669,438.973 762.002,438.306 758.5,437.5C 759.833,437.5 761.167,437.5 762.5,437.5C 762.823,412.759 762.49,388.092 761.5,363.5 Z"/></g>
<g><path style="opacity:0.972" fill="#f05c2e" d="M 1116.5,364.5 C 1140.63,375.717 1146.8,393.384 1135,417.5C 1130.2,422.816 1124.37,426.483 1117.5,428.5C 1116.51,407.242 1116.18,385.909 1116.5,364.5 Z"/></g>
<g><path style="opacity:1" fill="#fd9c05" d="M 565.5,430.5 C 553.662,434.421 542.328,439.421 531.5,445.5C 532.155,424.473 531.488,403.806 529.5,383.5C 538.843,376.824 548.843,371.158 559.5,366.5C 561.262,366.643 562.929,366.309 564.5,365.5C 565.5,387.156 565.833,408.823 565.5,430.5 Z"/></g>
<g><path style="opacity:0.999" fill="#f6060f" d="M 246.5,372.5 C 247.152,373.725 248.319,374.392 250,374.5C 311.5,383 373,391.5 434.5,400C 435.044,400.717 435.711,401.217 436.5,401.5C 429.507,411.334 419.84,416.501 407.5,417C 373.152,416.839 339.152,417.672 305.5,419.5C 304.539,421.265 304.205,423.265 304.5,425.5C 279.3,422.495 254.133,419.162 229,415.5C 227.319,415.392 226.152,414.725 225.5,413.5C 227.503,397.158 234.503,383.491 246.5,372.5 Z"/></g>
<g><path style="opacity:1" fill="#fea806" d="M 529.5,383.5 C 531.488,403.806 532.155,424.473 531.5,445.5C 520.161,451.166 509.494,457.832 499.5,465.5C 499.667,447.164 499.5,428.83 499,410.5C 498.329,411.252 497.496,411.586 496.5,411.5C 506.32,400.672 517.32,391.339 529.5,383.5 Z"/></g>
<g><path style="opacity:0.989" fill="#7900d8" d="M 920.5,389.5 C 898.489,420.986 892.989,455.32 904,492.5C 908.031,504.898 913.864,516.231 921.5,526.5C 922.234,527.708 922.567,529.041 922.5,530.5C 921.833,531.833 921.167,533.167 920.5,534.5C 902.206,522.347 883.539,510.68 864.5,499.5C 873.943,465.992 888.11,434.658 907,405.5C 910.989,399.683 915.489,394.349 920.5,389.5 Z"/></g>
<g><path style="opacity:1" fill="#fd0209" d="M 920.5,389.5 C 921.833,411.99 922.5,434.823 922.5,458C 922.5,481.002 922.167,503.836 921.5,526.5C 913.864,516.231 908.031,504.898 904,492.5C 892.989,455.32 898.489,420.986 920.5,389.5 Z"/></g>
<g><path style="opacity:1" fill="#feaf06" d="M 499.5,465.5 C 493.131,470.023 487.131,475.023 481.5,480.5C 481.667,464.163 481.5,447.83 481,431.5C 479.961,432.71 478.794,433.71 477.5,434.5C 482.708,425.954 489.041,418.287 496.5,411.5C 497.496,411.586 498.329,411.252 499,410.5C 499.5,428.83 499.667,447.164 499.5,465.5 Z"/></g>
<g><path style="opacity:0.98" fill="#fe0400" d="M 648.5,414.5 C 648.833,414.5 649.167,414.5 649.5,414.5C 594.29,420.4 554.957,448.4 531.5,498.5C 505.112,505 478.612,512.334 452,520.5C 451.601,520.272 451.435,519.938 451.5,519.5C 459.178,504.808 469.178,491.808 481.5,480.5C 487.131,475.023 493.131,470.023 499.5,465.5C 509.494,457.832 520.161,451.166 531.5,445.5C 542.328,439.421 553.662,434.421 565.5,430.5C 576.064,426.533 586.73,423.199 597.5,420.5C 608.795,418.574 620.128,416.908 631.5,415.5C 637.121,414.646 642.788,414.313 648.5,414.5 Z"/></g>
<g><path style="opacity:0.997" fill="#f50e20" d="M 225.5,413.5 C 226.152,414.725 227.319,415.392 229,415.5C 254.133,419.162 279.3,422.495 304.5,425.5C 304.205,423.265 304.539,421.265 305.5,419.5C 305.5,429.833 305.5,440.167 305.5,450.5C 304.532,452.607 304.198,454.941 304.5,457.5C 277.511,453.751 250.511,450.085 223.5,446.5C 223.5,437.833 223.5,429.167 223.5,420.5C 224.167,418.167 224.833,415.833 225.5,413.5 Z"/></g>
<g><path style="opacity:0.994" fill="#fc0913" d="M 937.5,373.5 C 928.485,383.051 924.985,394.384 927,407.5C 930.273,423.374 936.773,437.708 946.5,450.5C 945.502,484.663 945.168,518.996 945.5,553.5C 937.473,546.14 929.806,538.473 922.5,530.5C 922.567,529.041 922.234,527.708 921.5,526.5C 922.167,503.836 922.5,481.002 922.5,458C 922.5,434.823 921.833,411.99 920.5,389.5C 924.88,382.786 930.547,377.452 937.5,373.5 Z"/></g>
<g><path style="opacity:1" fill="#ffb706" d="M 481.5,480.5 C 469.178,491.808 459.178,504.808 451.5,519.5C 447.309,525.214 444.143,531.548 442,538.5C 440.203,543.023 439.036,547.69 438.5,552.5C 437.566,553.568 437.232,554.901 437.5,556.5C 436.532,554.393 436.198,552.059 436.5,549.5C 438.928,517.453 447.428,487.12 462,458.5C 466.443,449.925 471.61,441.925 477.5,434.5C 478.794,433.71 479.961,432.71 481,431.5C 481.5,447.83 481.667,464.163 481.5,480.5 Z"/></g>
<g><path style="opacity:0.997" fill="#f4132c" d="M 223.5,446.5 C 250.511,450.085 277.511,453.751 304.5,457.5C 304.198,454.941 304.532,452.607 305.5,450.5C 305.5,460.167 305.5,469.833 305.5,479.5C 304.532,481.607 304.198,483.941 304.5,486.5C 278.478,483.235 252.478,479.735 226.5,476C 225.309,475.302 224.309,474.469 223.5,473.5C 223.5,464.5 223.5,455.5 223.5,446.5 Z"/></g>
<g><path style="opacity:0.996" fill="#fa0e1f" d="M 946.5,450.5 C 950.126,455.461 954.126,460.128 958.5,464.5C 962.833,469.167 967.167,473.833 971.5,478.5C 970.833,509.833 970.167,541.167 969.5,572.5C 960.9,566.898 952.9,560.564 945.5,553.5C 945.168,518.996 945.502,484.663 946.5,450.5 Z"/></g>
<g><path style="opacity:0.998" fill="#f9132c" d="M 971.5,478.5 C 979.525,485.529 987.525,492.529 995.5,499.5C 994.502,529.329 994.169,559.329 994.5,589.5C 985.888,584.217 977.554,578.55 969.5,572.5C 970.167,541.167 970.833,509.833 971.5,478.5 Z"/></g>
<g><path style="opacity:0.978" fill="#f31839" d="M 223.5,473.5 C 224.309,474.469 225.309,475.302 226.5,476C 252.478,479.735 278.478,483.235 304.5,486.5C 304.198,483.941 304.532,481.607 305.5,479.5C 305.5,494.833 305.5,510.167 305.5,525.5C 304.532,523.393 304.198,521.059 304.5,518.5C 277.514,514.74 250.514,511.073 223.5,507.5C 223.5,496.167 223.5,484.833 223.5,473.5 Z"/></g>
<g><path style="opacity:0.992" fill="#f71939" d="M 995.5,499.5 C 997.833,500.833 1000.17,502.167 1002.5,503.5C 1008.15,507.475 1013.82,511.475 1019.5,515.5C 1019.83,546.005 1019.5,576.338 1018.5,606.5C 1010.11,601.312 1002.11,595.646 994.5,589.5C 994.169,559.329 994.502,529.329 995.5,499.5 Z"/></g>
<g><path style="opacity:0.995" fill="#fd070d" d="M 531.5,498.5 C 527.762,508.714 524.428,519.048 521.5,529.5C 493.877,537.322 466.21,544.989 438.5,552.5C 439.036,547.69 440.203,543.023 442,538.5C 444.143,531.548 447.309,525.214 451.5,519.5C 451.435,519.938 451.601,520.272 452,520.5C 478.612,512.334 505.112,505 531.5,498.5 Z"/></g>
<g><path style="opacity:0.968" fill="#007cc5" d="M 1327.5,520.5 C 1339.21,519.88 1350.54,521.546 1361.5,525.5C 1361.83,525.833 1362.17,526.167 1362.5,526.5C 1360.85,531.769 1359.52,537.102 1358.5,542.5C 1346.01,537.965 1333.34,537.465 1320.5,541C 1304.58,548.318 1296.92,560.818 1297.5,578.5C 1298.9,608.386 1314.57,621.553 1344.5,618C 1348.97,617.301 1353.3,616.134 1357.5,614.5C 1359.51,620.044 1360.68,625.71 1361,631.5C 1355.85,634.164 1350.35,635.664 1344.5,636C 1325.97,638.962 1308.97,635.296 1293.5,625C 1280.46,612.748 1274.13,597.581 1274.5,579.5C 1276.42,545.583 1294.09,525.917 1327.5,520.5 Z"/></g>
<g><path style="opacity:0.971" fill="#007cc5" d="M 1414.5,520.5 C 1448.89,519.727 1468.39,536.394 1473,570.5C 1475.41,592.261 1468.91,610.761 1453.5,626C 1439.95,635.468 1424.95,638.802 1408.5,636C 1384.37,629.864 1370.87,614.364 1368,589.5C 1364.23,563.11 1373.06,542.277 1394.5,527C 1400.99,523.891 1407.66,521.724 1414.5,520.5 Z M 1418.5,537.5 C 1433.81,538.742 1443.64,546.742 1448,561.5C 1452.74,578.092 1450.74,593.759 1442,608.5C 1432.86,619.242 1421.7,622.076 1408.5,617C 1400.25,612.027 1394.75,604.86 1392,595.5C 1387.65,579.295 1389.65,563.961 1398,549.5C 1403.32,542.637 1410.15,538.637 1418.5,537.5 Z"/></g>
<g><path style="opacity:0.968" fill="#007cc5" d="M 1632.5,520.5 C 1643.5,520.119 1654.17,521.786 1664.5,525.5C 1664.83,526.167 1665.17,526.833 1665.5,527.5C 1663.96,532.796 1662.62,538.13 1661.5,543.5C 1656.28,541.705 1650.94,540.205 1645.5,539C 1636.32,536.787 1628.49,538.953 1622,545.5C 1619.03,552.214 1620.53,557.714 1626.5,562C 1634.96,566.379 1643.63,570.379 1652.5,574C 1668.52,583.714 1673.68,597.548 1668,615.5C 1661.95,627.621 1652.12,634.454 1638.5,636C 1623.64,638.364 1609.64,636.03 1596.5,629C 1598.1,623.114 1599.93,617.28 1602,611.5C 1615.34,619.224 1629.17,620.391 1643.5,615C 1650.64,606.667 1649.98,599.001 1641.5,592C 1630.75,587.756 1620.42,582.756 1610.5,577C 1597.21,564.933 1595.04,551.1 1604,535.5C 1611.7,526.899 1621.2,521.899 1632.5,520.5 Z"/></g>
<g><path style="opacity:0.968" fill="#007cc5" d="M 2202.5,520.5 C 2214.11,520.034 2225.44,521.534 2236.5,525C 2237.02,525.561 2237.36,526.228 2237.5,527C 2235.77,532.079 2234.44,537.245 2233.5,542.5C 2226.36,540.273 2219.03,538.939 2211.5,538.5C 2186.11,540.055 2173.11,553.555 2172.5,579C 2174.15,608.634 2189.81,621.634 2219.5,618C 2223.97,617.301 2228.3,616.134 2232.5,614.5C 2234.51,620.039 2235.67,625.705 2236,631.5C 2231.15,634.004 2225.99,635.504 2220.5,636C 2167.11,639.276 2144.28,614.443 2152,561.5C 2160.15,537.024 2176.98,523.357 2202.5,520.5 Z"/></g>
<g><path style="opacity:0.997" fill="#f21d45" d="M 223.5,507.5 C 250.514,511.073 277.514,514.74 304.5,518.5C 304.198,521.059 304.532,523.393 305.5,525.5C 305.5,530.5 305.5,535.5 305.5,540.5C 304.532,542.607 304.198,544.941 304.5,547.5C 278.092,544.299 251.759,540.632 225.5,536.5C 224.824,537.602 224.158,538.602 223.5,539.5C 223.5,528.833 223.5,518.167 223.5,507.5 Z"/></g>
<g><path style="opacity:0.992" fill="#8405d0" d="M 864.5,499.5 C 883.539,510.68 902.206,522.347 920.5,534.5C 917.703,544.892 914.703,555.225 911.5,565.5C 892.04,554.937 873.04,543.603 854.5,531.5C 857.261,520.556 860.594,509.889 864.5,499.5 Z"/></g>
<g><path style="opacity:0.949" fill="#007cc5" d="M 1489.5,522.5 C 1497.86,522.169 1506.19,522.502 1514.5,523.5C 1531.1,549.287 1546.27,575.954 1560,603.5C 1559.63,576.514 1559.46,549.514 1559.5,522.5C 1566.17,522.5 1572.83,522.5 1579.5,522.5C 1579.5,560.167 1579.5,597.833 1579.5,635.5C 1571.91,635.814 1564.41,635.481 1557,634.5C 1539.72,606.945 1523.72,578.612 1509,549.5C 1509.43,578.144 1509.6,606.811 1509.5,635.5C 1502.83,635.5 1496.17,635.5 1489.5,635.5C 1489.5,597.833 1489.5,560.167 1489.5,522.5 Z"/></g>
<g><path style="opacity:0.973" fill="#007cc5" d="M 1687.5,522.5 C 1694.5,522.5 1701.5,522.5 1708.5,522.5C 1708.09,548.195 1708.59,573.862 1710,599.5C 1713.59,615.708 1723.42,621.875 1739.5,618C 1746.94,614.547 1751.44,608.714 1753,600.5C 1754.44,574.538 1754.94,548.538 1754.5,522.5C 1761.5,522.5 1768.5,522.5 1775.5,522.5C 1775.67,547.836 1775.5,573.169 1775,598.5C 1771.36,624.303 1756.53,636.97 1730.5,636.5C 1712.22,637.682 1699.39,630.015 1692,613.5C 1689.88,608.018 1688.55,602.351 1688,596.5C 1687.5,571.836 1687.33,547.169 1687.5,522.5 Z"/></g>
<g><path style="opacity:0.972" fill="#007dc4" d="M 1797.5,522.5 C 1804.83,522.5 1812.17,522.5 1819.5,522.5C 1819.5,553.833 1819.5,585.167 1819.5,616.5C 1834.83,616.5 1850.17,616.5 1865.5,616.5C 1865.5,622.833 1865.5,629.167 1865.5,635.5C 1842.83,635.5 1820.17,635.5 1797.5,635.5C 1797.5,597.833 1797.5,560.167 1797.5,522.5 Z"/></g>
<g><path style="opacity:0.957" fill="#007cc4" d="M 1852.5,522.5 C 1881.17,522.5 1909.83,522.5 1938.5,522.5C 1938.5,528.5 1938.5,534.5 1938.5,540.5C 1927.83,540.5 1917.17,540.5 1906.5,540.5C 1906.5,572.167 1906.5,603.833 1906.5,635.5C 1899.17,635.5 1891.83,635.5 1884.5,635.5C 1884.5,603.833 1884.5,572.167 1884.5,540.5C 1873.83,540.5 1863.17,540.5 1852.5,540.5C 1852.5,534.5 1852.5,528.5 1852.5,522.5 Z"/></g>
<g><path style="opacity:0.971" fill="#007cc5" d="M 1965.5,522.5 C 1974.75,522.182 1983.92,522.515 1993,523.5C 2005.07,560.537 2017.23,597.537 2029.5,634.5C 2021.85,635.665 2014.19,635.831 2006.5,635C 2002.87,624.601 1999.53,614.101 1996.5,603.5C 1984.81,603.168 1973.15,603.501 1961.5,604.5C 1958.03,614.711 1955.03,625.045 1952.5,635.5C 1945.17,635.5 1937.83,635.5 1930.5,635.5C 1941.96,597.779 1953.63,560.112 1965.5,522.5 Z M 1978.5,542.5 C 1982.53,557.242 1987.19,571.909 1992.5,586.5C 1983.52,587.498 1974.52,587.832 1965.5,587.5C 1970.04,572.544 1974.37,557.544 1978.5,542.5 Z"/></g>
<g><path style="opacity:0.961" fill="#007cc5" d="M 2043.5,522.5 C 2051.86,522.169 2060.19,522.502 2068.5,523.5C 2084.93,549.354 2100.1,576.021 2114,603.5C 2113.59,576.518 2113.43,549.518 2113.5,522.5C 2120.17,522.5 2126.83,522.5 2133.5,522.5C 2133.5,560.167 2133.5,597.833 2133.5,635.5C 2126.16,635.666 2118.83,635.5 2111.5,635C 2093.93,607.361 2077.76,578.861 2063,549.5C 2063.36,578.154 2063.53,606.821 2063.5,635.5C 2056.83,635.5 2050.17,635.5 2043.5,635.5C 2043.5,597.833 2043.5,560.167 2043.5,522.5 Z"/></g>
<g><path style="opacity:0.967" fill="#007cc5" d="M 2242.5,523.5 C 2250.68,522.179 2259.01,522.179 2267.5,523.5C 2275.55,539.594 2283.05,555.928 2290,572.5C 2296.95,555.928 2304.45,539.594 2312.5,523.5C 2320.5,522.167 2328.5,522.167 2336.5,523.5C 2324.59,544.996 2312.42,566.329 2300,587.5C 2299.5,603.497 2299.33,619.497 2299.5,635.5C 2292.5,635.5 2285.5,635.5 2278.5,635.5C 2278.67,619.83 2278.5,604.163 2278,588.5C 2266.65,566.451 2254.81,544.784 2242.5,523.5 Z"/></g>
<g><path style="opacity:0.994" fill="#f61e45" d="M 1019.5,515.5 C 1027.54,521.179 1035.54,526.846 1043.5,532.5C 1043.16,562.347 1042.16,592.014 1040.5,621.5C 1032.81,616.992 1025.48,611.992 1018.5,606.5C 1019.5,576.338 1019.83,546.005 1019.5,515.5 Z"/></g>
<g><path style="opacity:0.997" fill="#f42353" d="M 1043.5,532.5 C 1053.38,538.933 1063.04,545.599 1072.5,552.5C 1070.51,582.815 1069.84,613.482 1070.5,644.5C 1063.65,638.915 1056.65,633.582 1049.5,628.5C 1046.21,626.542 1043.21,624.209 1040.5,621.5C 1042.16,592.014 1043.16,562.347 1043.5,532.5 Z"/></g>
<g><path style="opacity:0.996" fill="#fb0b19" d="M 521.5,529.5 C 519.1,540.364 517.767,551.364 517.5,562.5C 489.825,569.837 462.158,577.17 434.5,584.5C 434.176,577.646 434.509,570.979 435.5,564.5C 436.371,561.997 437.037,559.33 437.5,556.5C 437.232,554.901 437.566,553.568 438.5,552.5C 466.21,544.989 493.877,537.322 521.5,529.5 Z"/></g>
<g><path style="opacity:0.984" fill="#f12352" d="M 305.5,540.5 C 305.5,555.833 305.5,571.167 305.5,586.5C 304.532,584.393 304.198,582.059 304.5,579.5C 277.538,575.588 250.538,571.921 223.5,568.5C 223.5,558.833 223.5,549.167 223.5,539.5C 224.158,538.602 224.824,537.602 225.5,536.5C 251.759,540.632 278.092,544.299 304.5,547.5C 304.198,544.941 304.532,542.607 305.5,540.5 Z"/></g>
<g><path style="opacity:0.994" fill="#900bc8" d="M 854.5,531.5 C 873.04,543.603 892.04,554.937 911.5,565.5C 908.744,575.769 905.41,585.769 901.5,595.5C 882.492,584.666 863.826,573.333 845.5,561.5C 848.13,551.286 851.13,541.286 854.5,531.5 Z"/></g>
<g><path style="opacity:0.816" fill="#fe7b0c" d="M 436.5,549.5 C 436.198,552.059 436.532,554.393 437.5,556.5C 437.037,559.33 436.371,561.997 435.5,564.5C 435.179,559.305 435.513,554.305 436.5,549.5 Z"/></g>
<g><path style="opacity:0.996" fill="#f2295e" d="M 1072.5,552.5 C 1078.89,556.356 1084.89,560.689 1090.5,565.5C 1090.83,598.338 1090.5,631.004 1089.5,663.5C 1085.83,659.167 1081.83,655.167 1077.5,651.5C 1074.86,649.527 1072.53,647.194 1070.5,644.5C 1069.84,613.482 1070.51,582.815 1072.5,552.5 Z"/></g>
<g><path style="opacity:0.992" fill="#9a10c1" d="M 845.5,561.5 C 863.826,573.333 882.492,584.666 901.5,595.5C 899.967,603.099 897.634,610.432 894.5,617.5C 875.492,606.666 856.826,595.333 838.5,583.5C 840.463,575.949 842.796,568.615 845.5,561.5 Z"/></g>
<g><path style="opacity:0.997" fill="#fa1026" d="M 517.5,562.5 C 516.534,570.08 516.201,577.747 516.5,585.5C 515.539,587.265 515.205,589.265 515.5,591.5C 489.114,598.412 463.114,606.079 437.5,614.5C 435.939,604.7 434.939,594.7 434.5,584.5C 462.158,577.17 489.825,569.837 517.5,562.5 Z"/></g>
<g><path style="opacity:0.995" fill="#f12e6b" d="M 1090.5,565.5 C 1099.74,571.401 1108.07,578.401 1115.5,586.5C 1115.83,623.004 1115.5,659.337 1114.5,695.5C 1107.13,684.109 1098.8,673.442 1089.5,663.5C 1090.5,631.004 1090.83,598.338 1090.5,565.5 Z"/></g>
<g><path style="opacity:0.997" fill="#f0285e" d="M 223.5,568.5 C 250.538,571.921 277.538,575.588 304.5,579.5C 304.198,582.059 304.532,584.393 305.5,586.5C 305.5,591.5 305.5,596.5 305.5,601.5C 304.532,603.607 304.198,605.941 304.5,608.5C 277.486,604.927 250.486,601.26 223.5,597.5C 223.5,587.833 223.5,578.167 223.5,568.5 Z"/></g>
<g><path style="opacity:0.989" fill="#a315b9" d="M 838.5,583.5 C 856.826,595.333 875.492,606.666 894.5,617.5C 891.929,626.228 888.596,634.561 884.5,642.5C 866.189,631.201 847.856,619.868 829.5,608.5C 832.258,600.003 835.258,591.669 838.5,583.5 Z"/></g>
<g><path style="opacity:0.991" fill="#ef3377" d="M 1115.5,586.5 C 1125,595.666 1133,606 1139.5,617.5C 1138.17,657.833 1138.17,698.167 1139.5,738.5C 1134.96,747.035 1129.29,754.702 1122.5,761.5C 1129.95,746.127 1130.45,730.46 1124,714.5C 1121.35,707.861 1118.18,701.528 1114.5,695.5C 1115.5,659.337 1115.83,623.004 1115.5,586.5 Z"/></g>
<g><path style="opacity:0.995" fill="#f81633" d="M 516.5,585.5 C 516.5,586.167 516.5,586.833 516.5,587.5C 516.637,598.867 517.304,610.201 518.5,621.5C 493.167,628.833 467.833,636.167 442.5,643.5C 439.933,633.997 438.266,624.33 437.5,614.5C 463.114,606.079 489.114,598.412 515.5,591.5C 515.205,589.265 515.539,587.265 516.5,585.5 Z"/></g>
<g><path style="opacity:0.997" fill="#f02e6b" d="M 223.5,597.5 C 250.486,601.26 277.486,604.927 304.5,608.5C 304.198,605.941 304.532,603.607 305.5,601.5C 305.5,614.167 305.5,626.833 305.5,639.5C 304.735,639.923 303.902,640.257 303,640.5C 276.557,636.413 250.057,632.746 223.5,629.5C 223.5,618.833 223.5,608.167 223.5,597.5 Z"/></g>
<g><path style="opacity:0.98" fill="#ee377f" d="M 1139.5,617.5 C 1153.54,647.233 1157.04,678.233 1150,710.5C 1147.58,720.277 1144.08,729.611 1139.5,738.5C 1138.17,698.167 1138.17,657.833 1139.5,617.5 Z"/></g>
<g><path style="opacity:0.992" fill="#ed3884" d="M 516.5,587.5 C 518.234,630.887 534.234,668.054 564.5,699C 601.386,729.397 643.719,741.397 691.5,735C 702.697,733.284 713.697,730.784 724.5,727.5C 746.665,741.75 768.998,755.75 791.5,769.5C 748.553,797.905 701.219,810.072 649.5,806C 613.217,804.513 578.883,795.68 546.5,779.5C 547.36,777.386 549.027,776.22 551.5,776C 567.096,771.727 582.596,767.227 598,762.5C 598.688,761.668 598.521,761.002 597.5,760.5C 588.254,754.915 579.587,748.582 571.5,741.5C 568.29,737.079 564.623,733.079 560.5,729.5C 554.239,720.635 548.239,711.635 542.5,702.5C 538.796,694.431 535.129,686.431 531.5,678.5C 528.673,668.857 526.006,659.19 523.5,649.5C 521.612,640.171 519.946,630.838 518.5,621.5C 517.304,610.201 516.637,598.867 516.5,587.5 Z"/></g>
<g><path style="opacity:0.992" fill="#af1ab1" d="M 829.5,608.5 C 847.856,619.868 866.189,631.201 884.5,642.5C 881.451,651.668 877.451,660.335 872.5,668.5C 853.997,657.083 835.664,645.416 817.5,633.5C 821.806,625.224 825.806,616.89 829.5,608.5 Z"/></g>
<g><path style="opacity:0.996" fill="#f61b3f" d="M 518.5,621.5 C 519.946,630.838 521.612,640.171 523.5,649.5C 499.73,655.756 476.063,662.423 452.5,669.5C 451.817,669.137 451.15,668.804 450.5,668.5C 447.06,660.509 444.393,652.176 442.5,643.5C 467.833,636.167 493.167,628.833 518.5,621.5 Z"/></g>
<g><path style="opacity:0.989" fill="#b71eab" d="M 817.5,633.5 C 835.664,645.416 853.997,657.083 872.5,668.5C 869.927,675.315 866.594,681.649 862.5,687.5C 846.273,676.468 829.607,665.968 812.5,656C 810.616,654.951 809.282,653.451 808.5,651.5C 811.5,645.5 814.5,639.5 817.5,633.5 Z"/></g>
<g><path style="opacity:0.984" fill="#e3338b" d="M 1049.5,628.5 C 1056.65,633.582 1063.65,638.915 1070.5,644.5C 1072.53,647.194 1074.86,649.527 1077.5,651.5C 1088.32,692.464 1098.99,733.464 1109.5,774.5C 1106.99,777.255 1103.99,779.255 1100.5,780.5C 1091.57,750.771 1083.23,720.771 1075.5,690.5C 1077.99,672.122 1073.49,655.789 1062,641.5C 1057.63,637.298 1053.46,632.964 1049.5,628.5 Z"/></g>
<g><path style="opacity:0.996" fill="#ee3377" d="M 223.5,629.5 C 250.057,632.746 276.557,636.413 303,640.5C 303.902,640.257 304.735,639.923 305.5,639.5C 305.5,645.833 305.5,652.167 305.5,658.5C 304.518,661.962 304.185,665.629 304.5,669.5C 277.486,665.927 250.486,662.26 223.5,658.5C 223.5,648.833 223.5,639.167 223.5,629.5 Z"/></g>
<g><path style="opacity:0.99" fill="#be22a6" d="M 808.5,651.5 C 809.282,653.451 810.616,654.951 812.5,656C 829.607,665.968 846.273,676.468 862.5,687.5C 860.668,691.836 858.335,695.836 855.5,699.5C 837.336,687.584 819.003,675.917 800.5,664.5C 802.919,659.991 805.586,655.658 808.5,651.5 Z"/></g>
<g><path style="opacity:1" fill="#f5204c" d="M 523.5,649.5 C 526.006,659.19 528.673,668.857 531.5,678.5C 509.017,684.37 486.684,690.704 464.5,697.5C 460.736,690.297 456.736,683.297 452.5,676.5C 451.833,673.833 451.167,671.167 450.5,668.5C 451.15,668.804 451.817,669.137 452.5,669.5C 476.063,662.423 499.73,655.756 523.5,649.5 Z"/></g>
<g><path style="opacity:0.991" fill="#c625a0" d="M 800.5,664.5 C 819.003,675.917 837.336,687.584 855.5,699.5C 850.893,707.728 845.56,715.394 839.5,722.5C 839.631,721.624 839.298,720.957 838.5,720.5C 819.935,709.392 801.602,698.059 783.5,686.5C 789.198,679.143 794.864,671.809 800.5,664.5 Z"/></g>
<g><path style="opacity:0.999" fill="#ec3885" d="M 1077.5,651.5 C 1081.83,655.167 1085.83,659.167 1089.5,663.5C 1098.8,673.442 1107.13,684.109 1114.5,695.5C 1118.18,701.528 1121.35,707.861 1124,714.5C 1130.45,730.46 1129.95,746.127 1122.5,761.5C 1119.17,766.833 1114.83,771.167 1109.5,774.5C 1098.99,733.464 1088.32,692.464 1077.5,651.5 Z"/></g>
<g><path style="opacity:0.994" fill="#ee3883" d="M 223.5,658.5 C 250.486,662.26 277.486,665.927 304.5,669.5C 301.956,700.882 307.789,730.548 322,758.5C 328.733,769.4 337.566,778.067 348.5,784.5C 354.793,789.145 361.793,792.478 369.5,794.5C 382.134,797.802 394.801,798.802 407.5,797.5C 410.881,797.54 414.214,797.207 417.5,796.5C 418.5,796.5 419.5,796.5 420.5,796.5C 408.058,801.291 395.058,804.124 381.5,805C 346.605,808.241 313.605,801.908 282.5,786C 248.475,763.823 229.308,732.323 225,691.5C 223.791,680.533 223.291,669.533 223.5,658.5 Z"/></g>
<g><path style="opacity:0.992" fill="#990fc1" d="M 452.5,676.5 C 456.736,683.297 460.736,690.297 464.5,697.5C 468.502,706.181 473.502,714.181 479.5,721.5C 484.085,727.017 488.418,732.683 492.5,738.5C 486.951,748.046 480.284,756.713 472.5,764.5C 471.25,764.423 470.417,763.756 470,762.5C 462.228,737.689 454.395,713.023 446.5,688.5C 449.025,684.783 451.025,680.783 452.5,676.5 Z"/></g>
<g><path style="opacity:0.97" fill="#017cc5" d="M 1306.5,688.5 C 1313.51,688.334 1320.51,688.5 1327.5,689C 1332.92,689.695 1338.08,691.195 1343,693.5C 1342.36,699.755 1340.69,705.755 1338,711.5C 1326.81,705.278 1315.31,704.444 1303.5,709C 1296.83,715.667 1296.83,722.333 1303.5,729C 1311.9,733.531 1320.56,737.531 1329.5,741C 1348.36,752.609 1352.86,768.442 1343,788.5C 1333.04,799.549 1320.54,804.883 1305.5,804.5C 1294.97,804.367 1284.97,802.033 1275.5,797.5C 1275.17,797 1274.83,796.5 1274.5,796C 1276.35,790.612 1277.69,785.112 1278.5,779.5C 1283.76,781.421 1289.09,783.254 1294.5,785C 1303.43,787.461 1312.1,786.794 1320.5,783C 1327.96,776.086 1328.3,768.92 1321.5,761.5C 1318.16,758.829 1314.5,756.663 1310.5,755C 1297.93,752.075 1287.77,745.575 1280,735.5C 1272,710.336 1280.83,694.669 1306.5,688.5 Z"/></g>
<g><path style="opacity:0.967" fill="#007cc5" d="M 1731.5,688.5 C 1739.84,688.334 1748.17,688.5 1756.5,689C 1760.97,689.699 1765.3,690.866 1769.5,692.5C 1769.83,693.333 1770.17,694.167 1770.5,695C 1769.36,700.393 1767.7,705.56 1765.5,710.5C 1748.07,703.054 1731.74,704.888 1716.5,716C 1705.65,729.925 1702.82,745.425 1708,762.5C 1714.59,778.057 1726.42,786.057 1743.5,786.5C 1751.31,785.734 1758.98,784.568 1766.5,783C 1768.37,788.345 1769.2,793.845 1769,799.5C 1751.25,805.864 1733.41,806.031 1715.5,800C 1697.69,792.235 1687.19,778.735 1684,759.5C 1679.15,721.582 1694.99,697.916 1731.5,688.5 Z"/></g>
<g><path style="opacity:0.967" fill="#017cc5" d="M 1898.5,688.5 C 1905.84,688.334 1913.17,688.5 1920.5,689C 1925.54,689.902 1930.37,691.402 1935,693.5C 1934.36,699.755 1932.69,705.755 1930,711.5C 1918.85,705.109 1907.35,704.276 1895.5,709C 1888.83,715.667 1888.83,722.333 1895.5,729C 1904.56,733.864 1913.9,738.197 1923.5,742C 1938.82,751.631 1943.66,765.131 1938,782.5C 1934.04,791.25 1927.54,797.417 1918.5,801C 1904.18,805.621 1889.85,805.621 1875.5,801C 1872.02,800.095 1869.02,798.429 1866.5,796C 1868.08,790.856 1869.58,785.689 1871,780.5C 1871.41,780.043 1871.91,779.709 1872.5,779.5C 1885.37,786.929 1898.7,788.095 1912.5,783C 1919.52,776.559 1920.19,769.559 1914.5,762C 1906.09,756.525 1897.09,752.191 1887.5,749C 1868.17,737.869 1863.67,722.369 1874,702.5C 1880.65,694.98 1888.82,690.313 1898.5,688.5 Z"/></g>
<g><path style="opacity:0.962" fill="#007cc5" d="M 1477.5,689.5 C 1488.85,689.394 1499.85,691.227 1510.5,695C 1524.7,703.929 1529.2,716.429 1524,732.5C 1520.36,739.973 1514.86,745.639 1507.5,749.5C 1512.57,753.074 1516.4,757.74 1519,763.5C 1522.44,776.48 1526.27,789.313 1530.5,802C 1523.17,802.667 1515.83,802.667 1508.5,802C 1504.66,792.494 1501.83,782.661 1500,772.5C 1498.66,765.632 1494.83,760.799 1488.5,758C 1482.88,756.971 1477.21,756.471 1471.5,756.5C 1471.5,771.833 1471.5,787.167 1471.5,802.5C 1464.5,802.5 1457.5,802.5 1450.5,802.5C 1450.17,765.827 1450.5,729.161 1451.5,692.5C 1460.25,691.132 1468.92,690.132 1477.5,689.5 Z M 1472.5,706.5 C 1478.84,706.334 1485.18,706.5 1491.5,707C 1503.52,711.202 1507.35,719.369 1503,731.5C 1499.13,737.354 1493.63,740.521 1486.5,741C 1481.51,741.499 1476.51,741.666 1471.5,741.5C 1471.19,729.753 1471.52,718.086 1472.5,706.5 Z"/></g>
<g><path style="opacity:0.962" fill="#007cc5" d="M 1535.5,689.5 C 1543.17,689.5 1550.83,689.5 1558.5,689.5C 1567.5,719.341 1576,749.341 1584,779.5C 1592.46,749.616 1601.63,719.949 1611.5,690.5C 1619.17,689.167 1626.83,689.167 1634.5,690.5C 1621.57,727.462 1608.73,764.462 1596,801.5C 1587.67,802.833 1579.33,802.833 1571,801.5C 1558.45,764.357 1546.62,727.023 1535.5,689.5 Z"/></g>
<g><path style="opacity:0.968" fill="#007dc5" d="M 1645.5,689.5 C 1652.5,689.5 1659.5,689.5 1666.5,689.5C 1666.5,727.167 1666.5,764.833 1666.5,802.5C 1659.5,802.5 1652.5,802.5 1645.5,802.5C 1645.5,764.833 1645.5,727.167 1645.5,689.5 Z"/></g>
<g><path style="opacity:0.969" fill="#007cc5" d="M 1365.5,689.5 C 1387.5,689.5 1409.5,689.5 1431.5,689.5C 1431.5,695.5 1431.5,701.5 1431.5,707.5C 1416.5,707.5 1401.5,707.5 1386.5,707.5C 1386.5,716.833 1386.5,726.167 1386.5,735.5C 1400.5,735.5 1414.5,735.5 1428.5,735.5C 1428.5,741.167 1428.5,746.833 1428.5,752.5C 1414.5,752.5 1400.5,752.5 1386.5,752.5C 1386.5,763.167 1386.5,773.833 1386.5,784.5C 1402.17,784.5 1417.83,784.5 1433.5,784.5C 1433.5,790.5 1433.5,796.5 1433.5,802.5C 1410.83,802.5 1388.17,802.5 1365.5,802.5C 1365.5,764.833 1365.5,727.167 1365.5,689.5 Z"/></g>
<g><path style="opacity:0.973" fill="#007cc5" d="M 1786.5,689.5 C 1808.5,689.5 1830.5,689.5 1852.5,689.5C 1852.5,695.5 1852.5,701.5 1852.5,707.5C 1837.5,707.5 1822.5,707.5 1807.5,707.5C 1807.5,716.833 1807.5,726.167 1807.5,735.5C 1821.5,735.5 1835.5,735.5 1849.5,735.5C 1849.5,741.167 1849.5,746.833 1849.5,752.5C 1835.5,752.5 1821.5,752.5 1807.5,752.5C 1807.5,763.167 1807.5,773.833 1807.5,784.5C 1823.17,784.5 1838.83,784.5 1854.5,784.5C 1854.5,790.5 1854.5,796.5 1854.5,802.5C 1831.83,802.5 1809.17,802.5 1786.5,802.5C 1786.5,764.833 1786.5,727.167 1786.5,689.5 Z"/></g>
<g><path style="opacity:0.994" fill="#d02a99" d="M 783.5,686.5 C 801.602,698.059 819.935,709.392 838.5,720.5C 839.298,720.957 839.631,721.624 839.5,722.5C 835.196,728.771 830.196,734.437 824.5,739.5C 823.448,739.649 822.448,739.483 821.5,739C 802.777,726.975 783.777,715.475 764.5,704.5C 770.807,698.528 777.14,692.528 783.5,686.5 Z"/></g>
<g><path style="opacity:1" fill="#f32658" d="M 531.5,678.5 C 535.129,686.431 538.796,694.431 542.5,702.5C 542.38,703.586 541.713,704.253 540.5,704.5C 520.206,710.377 499.873,716.043 479.5,721.5C 473.502,714.181 468.502,706.181 464.5,697.5C 486.684,690.704 509.017,684.37 531.5,678.5 Z"/></g>
<g><path style="opacity:0.993" fill="#a415ba" d="M 446.5,688.5 C 454.395,713.023 462.228,737.689 470,762.5C 470.417,763.756 471.25,764.423 472.5,764.5C 467.109,770.224 461.109,775.224 454.5,779.5C 447.073,758.052 439.907,736.385 433,714.5C 432.505,712.527 432.338,710.527 432.5,708.5C 437.556,702.11 442.223,695.443 446.5,688.5 Z"/></g>
<g><path style="opacity:0.99" fill="#dd3090" d="M 1075.5,690.5 C 1083.23,720.771 1091.57,750.771 1100.5,780.5C 1097.02,783.623 1093.02,785.957 1088.5,787.5C 1082.15,761.422 1075.48,735.422 1068.5,709.5C 1071.45,703.3 1073.79,696.967 1075.5,690.5 Z"/></g>
<g><path style="opacity:0.988" fill="#de318f" d="M 305.5,658.5 C 305.326,676.474 309.826,693.141 319,708.5C 322.002,712.668 325.502,716.335 329.5,719.5C 329.389,720.117 329.056,720.617 328.5,721C 335.466,742.066 342.133,763.233 348.5,784.5C 337.566,778.067 328.733,769.4 322,758.5C 307.789,730.548 301.956,700.882 304.5,669.5C 304.185,665.629 304.518,661.962 305.5,658.5 Z"/></g>
<g><path style="opacity:0.992" fill="#da2f92" d="M 764.5,704.5 C 783.777,715.475 802.777,726.975 821.5,739C 822.448,739.483 823.448,739.649 824.5,739.5C 820.167,745.833 814.833,751.167 808.5,755.5C 787.97,742.068 766.97,729.401 745.5,717.5C 751.97,713.427 758.303,709.093 764.5,704.5 Z"/></g>
<g><path style="opacity:0.989" fill="#ad19b3" d="M 432.5,708.5 C 432.338,710.527 432.505,712.527 433,714.5C 439.907,736.385 447.073,758.052 454.5,779.5C 448.201,783.988 441.534,787.988 434.5,791.5C 426.788,769.362 419.454,747.029 412.5,724.5C 419.492,719.658 426.159,714.325 432.5,708.5 Z"/></g>
<g><path style="opacity:0.995" fill="#f12b65" d="M 542.5,702.5 C 548.239,711.635 554.239,720.635 560.5,729.5C 541.104,735.739 521.437,741.406 501.5,746.5C 497.854,744.518 494.854,741.851 492.5,738.5C 488.418,732.683 484.085,727.017 479.5,721.5C 499.873,716.043 520.206,710.377 540.5,704.5C 541.713,704.253 542.38,703.586 542.5,702.5 Z"/></g>
<g><path style="opacity:0.991" fill="#e2338c" d="M 745.5,717.5 C 766.97,729.401 787.97,742.068 808.5,755.5C 803.425,760.873 797.759,765.539 791.5,769.5C 768.998,755.75 746.665,741.75 724.5,727.5C 731.583,724.46 738.583,721.126 745.5,717.5 Z"/></g>
<g><path style="opacity:0.993" fill="#900bc8" d="M 932.5,723.5 C 938.545,749.015 945.212,774.349 952.5,799.5C 943.168,797.608 934.168,794.941 925.5,791.5C 919.364,767.761 913.03,744.094 906.5,720.5C 915.571,718.753 924.238,719.753 932.5,723.5 Z"/></g>
<g><path style="opacity:0.988" fill="#d52d95" d="M 1068.5,709.5 C 1075.48,735.422 1082.15,761.422 1088.5,787.5C 1083.93,790.616 1078.93,792.95 1073.5,794.5C 1067.5,771.167 1061.5,747.833 1055.5,724.5C 1060.24,719.77 1064.57,714.77 1068.5,709.5 Z"/></g>
<g><path style="opacity:0.986" fill="#8204d2" d="M 906.5,720.5 C 913.03,744.094 919.364,767.761 925.5,791.5C 910.743,787.877 898.243,780.543 888,769.5C 883.258,759.582 882.258,749.248 885,738.5C 888.943,728.616 896.11,722.616 906.5,720.5 Z"/></g>
<g><path style="opacity:0.991" fill="#b71eab" d="M 412.5,724.5 C 419.454,747.029 426.788,769.362 434.5,791.5C 430.042,793.728 425.375,795.395 420.5,796.5C 419.5,796.5 418.5,796.5 417.5,796.5C 411.143,775.26 404.476,754.093 397.5,733C 397.164,731.97 396.497,731.47 395.5,731.5C 401.16,729.385 406.827,727.051 412.5,724.5 Z"/></g>
<g><path style="opacity:0.993" fill="#9a10c1" d="M 932.5,723.5 C 939.074,725.054 945.407,727.054 951.5,729.5C 957.751,753.337 964.084,777.17 970.5,801C 970.164,802.03 969.497,802.53 968.5,802.5C 963.041,802.008 957.708,801.008 952.5,799.5C 945.212,774.349 938.545,749.015 932.5,723.5 Z"/></g>
<g><path style="opacity:0.997" fill="#d52d95" d="M 329.5,719.5 C 335.556,724.196 342.223,727.863 349.5,730.5C 356.767,751.636 363.434,772.969 369.5,794.5C 361.793,792.478 354.793,789.145 348.5,784.5C 342.133,763.233 335.466,742.066 328.5,721C 329.056,720.617 329.389,720.117 329.5,719.5 Z"/></g>
<g><path style="opacity:0.994" fill="#f12f6d" d="M 560.5,729.5 C 564.623,733.079 568.29,737.079 571.5,741.5C 553.23,746.818 534.896,751.985 516.5,757C 515.944,757.383 515.611,757.883 515.5,758.5C 509.945,755.617 505.278,751.617 501.5,746.5C 521.437,741.406 541.104,735.739 560.5,729.5 Z"/></g>
<g><path style="opacity:0.991" fill="#cb289c" d="M 1055.5,724.5 C 1061.5,747.833 1067.5,771.167 1073.5,794.5C 1067.05,797.206 1060.39,799.539 1053.5,801.5C 1048.99,782.116 1044.15,762.783 1039,743.5C 1038.42,740.428 1037.25,737.761 1035.5,735.5C 1042.42,732.371 1049.09,728.705 1055.5,724.5 Z"/></g>
<g><path style="opacity:0.989" fill="#a315b9" d="M 951.5,729.5 C 959.689,731.543 967.689,733.877 975.5,736.5C 974.876,736.917 974.543,737.584 974.5,738.5C 980.352,760.912 986.352,783.245 992.5,805.5C 984.243,805.468 976.243,804.468 968.5,802.5C 969.497,802.53 970.164,802.03 970.5,801C 964.084,777.17 957.751,753.337 951.5,729.5 Z"/></g>
<g><path style="opacity:0.994" fill="#cc289c" d="M 349.5,730.5 C 356.384,732.258 363.384,733.258 370.5,733.5C 371.848,734.186 373.015,735.186 374,736.5C 380.535,756.439 386.868,776.439 393,796.5C 397.737,797.469 402.57,797.803 407.5,797.5C 394.801,798.802 382.134,797.802 369.5,794.5C 363.434,772.969 356.767,751.636 349.5,730.5 Z"/></g>
<g><path style="opacity:0.997" fill="#c324a3" d="M 395.5,731.5 C 396.497,731.47 397.164,731.97 397.5,733C 404.476,754.093 411.143,775.26 417.5,796.5C 414.214,797.207 410.881,797.54 407.5,797.5C 402.57,797.803 397.737,797.469 393,796.5C 386.868,776.439 380.535,756.439 374,736.5C 373.015,735.186 371.848,734.186 370.5,733.5C 378.924,733.786 387.258,733.12 395.5,731.5 Z"/></g>
<g><path style="opacity:0.991" fill="#ad19b3" d="M 975.5,736.5 C 982.809,737.664 990.142,738.664 997.5,739.5C 1003.16,760.815 1008.83,782.148 1014.5,803.5C 1014.31,804.584 1013.98,805.584 1013.5,806.5C 1006.41,806.795 999.412,806.462 992.5,805.5C 986.352,783.245 980.352,760.912 974.5,738.5C 974.543,737.584 974.876,736.917 975.5,736.5 Z"/></g>
<g><path style="opacity:0.994" fill="#c223a3" d="M 1035.5,735.5 C 1037.25,737.761 1038.42,740.428 1039,743.5C 1044.15,762.783 1048.99,782.116 1053.5,801.5C 1046.58,803.042 1039.58,804.042 1032.5,804.5C 1025.75,783.164 1019.75,761.497 1014.5,739.5C 1021.59,738.643 1028.59,737.309 1035.5,735.5 Z"/></g>
<g><path style="opacity:0.99" fill="#b71eab" d="M 997.5,739.5 C 1003.17,739.5 1008.83,739.5 1014.5,739.5C 1019.75,761.497 1025.75,783.164 1032.5,804.5C 1026.36,805.636 1020.03,806.303 1013.5,806.5C 1013.98,805.584 1014.31,804.584 1014.5,803.5C 1008.83,782.148 1003.16,760.815 997.5,739.5 Z"/></g>
<g><path style="opacity:0.99" fill="#ef3377" d="M 571.5,741.5 C 579.587,748.582 588.254,754.915 597.5,760.5C 598.521,761.002 598.688,761.668 598,762.5C 582.596,767.227 567.096,771.727 551.5,776C 549.027,776.22 547.36,777.386 546.5,779.5C 535.265,773.724 524.931,766.724 515.5,758.5C 515.611,757.883 515.944,757.383 516.5,757C 534.896,751.985 553.23,746.818 571.5,741.5 Z"/></g>
</svg>
